<?xml version="1.0" encoding="us-ascii" standalone="no"?><svg xmlns="http://www.w3.org/2000/svg" xmlns:xlink="http://www.w3.org/1999/xlink" contentStyleType="text/css" height="284px" preserveAspectRatio="none" style="width:672px;height:284px;background:#FFFFFF;" version="1.1" viewBox="0 0 672 284" width="672px" zoomAndPan="magnify"><defs/><g><!--class Program--><g id="elem_Program"><rect codeLine="1" fill="#F1F1F1" height="48" id="Program" rx="2.5" ry="2.5" style="stroke:#181818;stroke-width:0.5;" width="90" x="88" y="26.07"/><ellipse cx="103" cy="42.07" fill="#ADD1B2" rx="11" ry="11" style="stroke:#181818;stroke-width:1.0;"/><path d="M102.4688,48.9919 Q100.7188,48.9919 99.5781,48.2575 Q98.4531,47.5075 97.8906,46.1638 Q97.3438,44.8044 97.3438,43.0075 Q97.3438,40.9763 98,39.5231 Q98.6563,38.07 99.9375,37.2888 Q101.2188,36.5075 103.0938,36.5075 Q103.9844,36.5075 104.6563,36.695 Q105.3281,36.8669 106.0156,37.2106 L105.2031,39.2263 Q104.5781,38.9138 104.0313,38.7888 Q103.5,38.6638 103.0156,38.6638 Q101.8438,38.6638 101.1406,39.195 Q100.4375,39.7263 100.1406,40.6794 Q99.8438,41.6325 99.8438,42.8981 Q99.8438,44.9138 100.5625,45.8825 Q101.2813,46.8356 102.875,46.8356 Q103.4688,46.8356 104.0938,46.6794 Q104.7188,46.5231 105.5469,46.1481 L105.5469,48.3669 Q104.8125,48.6794 104.0156,48.8356 Q103.2344,48.9919 102.4688,48.9919 Z " fill="#000000"/><text fill="#000000" font-family="sans-serif" font-size="14" lengthAdjust="spacing" textLength="58" x="117" y="47.502">Program</text><line style="stroke:#181818;stroke-width:0.5;" x1="89" x2="177" y1="58.07" y2="58.07"/><line style="stroke:#181818;stroke-width:0.5;" x1="89" x2="177" y1="66.07" y2="66.07"/></g><!--class SuapApiController--><g id="elem_SuapApiController"><rect codeLine="1" fill="#F1F1F1" height="124.2717" id="SuapApiController" rx="2.5" ry="2.5" style="stroke:#181818;stroke-width:0.5;" width="243" x="422.5" y="153.14"/><ellipse cx="478.25" cy="169.14" fill="#ADD1B2" rx="11" ry="11" style="stroke:#181818;stroke-width:1.0;"/><path d="M477.7188,176.0619 Q475.9688,176.0619 474.8281,175.3275 Q473.7031,174.5775 473.1406,173.2338 Q472.5938,171.8744 472.5938,170.0775 Q472.5938,168.0463 473.25,166.5931 Q473.9063,165.14 475.1875,164.3588 Q476.4688,163.5775 478.3438,163.5775 Q479.2344,163.5775 479.9063,163.765 Q480.5781,163.9369 481.2656,164.2806 L480.4531,166.2963 Q479.8281,165.9838 479.2813,165.8588 Q478.75,165.7338 478.2656,165.7338 Q477.0938,165.7338 476.3906,166.265 Q475.6875,166.7963 475.3906,167.7494 Q475.0938,168.7025 475.0938,169.9681 Q475.0938,171.9838 475.8125,172.9525 Q476.5313,173.9056 478.125,173.9056 Q478.7188,173.9056 479.3438,173.7494 Q479.9688,173.5931 480.7969,173.2181 L480.7969,175.4369 Q480.0625,175.7494 479.2656,175.9056 Q478.4844,176.0619 477.7188,176.0619 Z " fill="#000000"/><text fill="#000000" font-family="sans-serif" font-size="14" lengthAdjust="spacing" textLength="123" x="498.75" y="174.572">SuapApiController</text><line style="stroke:#181818;stroke-width:0.5;" x1="423.5" x2="664.5" y1="185.14" y2="185.14"/><rect fill="none" height="6" style="stroke:#C82930;stroke-width:1.0;" width="6" x="430.5" y="197.174"/><text fill="#000000" font-family="sans-serif" font-size="14" lengthAdjust="spacing" text-decoration="underline" textLength="125" x="442.5" y="204.1059">_data : RecentData</text><line style="stroke:#181818;stroke-width:0.5;" x1="423.5" x2="664.5" y1="212.2079" y2="212.2079"/><ellipse cx="433.5" cy="227.2419" fill="#84BE84" rx="3" ry="3" style="stroke:#038048;stroke-width:1.0;"/><text fill="#000000" font-family="sans-serif" font-size="14" lengthAdjust="spacing" textLength="131" x="442.5" y="231.1739">SuapApiController()</text><ellipse cx="433.5" cy="246.3098" fill="#84BE84" rx="3" ry="3" style="stroke:#038048;stroke-width:1.0;"/><text fill="#000000" font-family="sans-serif" font-size="14" lengthAdjust="spacing" textLength="163" x="442.5" y="250.2418">GetData() : IActionResult</text><ellipse cx="433.5" cy="265.3777" fill="#84BE84" rx="3" ry="3" style="stroke:#038048;stroke-width:1.0;"/><text fill="#000000" font-family="sans-serif" font-size="14" lengthAdjust="spacing" textLength="217" x="442.5" y="269.3097">PostData(broj:int) : IActionResult</text></g><!--class ControllerBase--><g id="elem_ControllerBase"><rect fill="#F1F1F1" height="48" id="ControllerBase" rx="2.5" ry="2.5" style="stroke:#181818;stroke-width:0.5;" width="131" x="478.5" y="26.07"/><ellipse cx="493.5" cy="42.07" fill="#ADD1B2" rx="11" ry="11" style="stroke:#181818;stroke-width:1.0;"/><path d="M492.9688,48.9919 Q491.2188,48.9919 490.0781,48.2575 Q488.9531,47.5075 488.3906,46.1638 Q487.8438,44.8044 487.8438,43.0075 Q487.8438,40.9763 488.5,39.5231 Q489.1563,38.07 490.4375,37.2888 Q491.7188,36.5075 493.5938,36.5075 Q494.4844,36.5075 495.1563,36.695 Q495.8281,36.8669 496.5156,37.2106 L495.7031,39.2263 Q495.0781,38.9138 494.5313,38.7888 Q494,38.6638 493.5156,38.6638 Q492.3438,38.6638 491.6406,39.195 Q490.9375,39.7263 490.6406,40.6794 Q490.3438,41.6325 490.3438,42.8981 Q490.3438,44.9138 491.0625,45.8825 Q491.7813,46.8356 493.375,46.8356 Q493.9688,46.8356 494.5938,46.6794 Q495.2188,46.5231 496.0469,46.1481 L496.0469,48.3669 Q495.3125,48.6794 494.5156,48.8356 Q493.7344,48.9919 492.9688,48.9919 Z " fill="#000000"/><text fill="#000000" font-family="sans-serif" font-size="14" lengthAdjust="spacing" textLength="99" x="507.5" y="47.502">ControllerBase</text><line style="stroke:#181818;stroke-width:0.5;" x1="479.5" x2="608.5" y1="58.07" y2="58.07"/><line style="stroke:#181818;stroke-width:0.5;" x1="479.5" x2="608.5" y1="66.07" y2="66.07"/></g><!--class ErrorViewModel--><g id="elem_ErrorViewModel"><rect codeLine="1" fill="#F1F1F1" height="86.1358" id="ErrorViewModel" rx="2.5" ry="2.5" style="stroke:#181818;stroke-width:0.5;" width="231" x="212.5" y="7"/><ellipse cx="270.25" cy="23" fill="#ADD1B2" rx="11" ry="11" style="stroke:#181818;stroke-width:1.0;"/><path d="M269.7188,29.9219 Q267.9688,29.9219 266.8281,29.1875 Q265.7031,28.4375 265.1406,27.0938 Q264.5938,25.7344 264.5938,23.9375 Q264.5938,21.9063 265.25,20.4531 Q265.9063,19 267.1875,18.2188 Q268.4688,17.4375 270.3438,17.4375 Q271.2344,17.4375 271.9063,17.625 Q272.5781,17.7969 273.2656,18.1406 L272.4531,20.1563 Q271.8281,19.8438 271.2813,19.7188 Q270.75,19.5938 270.2656,19.5938 Q269.0938,19.5938 268.3906,20.125 Q267.6875,20.6563 267.3906,21.6094 Q267.0938,22.5625 267.0938,23.8281 Q267.0938,25.8438 267.8125,26.8125 Q268.5313,27.7656 270.125,27.7656 Q270.7188,27.7656 271.3438,27.6094 Q271.9688,27.4531 272.7969,27.0781 L272.7969,29.2969 Q272.0625,29.6094 271.2656,29.7656 Q270.4844,29.9219 269.7188,29.9219 Z " fill="#000000"/><text fill="#000000" font-family="sans-serif" font-size="14" lengthAdjust="spacing" textLength="107" x="290.75" y="28.432">ErrorViewModel</text><line style="stroke:#181818;stroke-width:0.5;" x1="213.5" x2="442.5" y1="39" y2="39"/><ellipse cx="223.5" cy="54.034" fill="none" rx="3" ry="3" style="stroke:#038048;stroke-width:1.0;"/><text fill="#000000" font-family="sans-serif" font-size="14" lengthAdjust="spacing" textLength="205" x="232.5" y="57.9659">RequestId : string? &#171;get&#187; &#171;set&#187;</text><ellipse cx="223.5" cy="73.1019" fill="none" rx="3" ry="3" style="stroke:#038048;stroke-width:1.0;"/><text fill="#000000" font-family="sans-serif" font-size="14" lengthAdjust="spacing" textLength="186" x="232.5" y="77.0339">ShowRequestId : bool &#171;get&#187;</text><line style="stroke:#181818;stroke-width:0.5;" x1="213.5" x2="442.5" y1="85.1358" y2="85.1358"/></g><!--class RecentData--><g id="elem_RecentData"><rect codeLine="1" fill="#F1F1F1" height="124.2717" id="RecentData" rx="2.5" ry="2.5" style="stroke:#181818;stroke-width:0.5;" width="252" x="7" y="153.14"/><ellipse cx="90.25" cy="169.14" fill="#ADD1B2" rx="11" ry="11" style="stroke:#181818;stroke-width:1.0;"/><path d="M89.7188,176.0619 Q87.9688,176.0619 86.8281,175.3275 Q85.7031,174.5775 85.1406,173.2338 Q84.5938,171.8744 84.5938,170.0775 Q84.5938,168.0463 85.25,166.5931 Q85.9063,165.14 87.1875,164.3588 Q88.4688,163.5775 90.3438,163.5775 Q91.2344,163.5775 91.9063,163.765 Q92.5781,163.9369 93.2656,164.2806 L92.4531,166.2963 Q91.8281,165.9838 91.2813,165.8588 Q90.75,165.7338 90.2656,165.7338 Q89.0938,165.7338 88.3906,166.265 Q87.6875,166.7963 87.3906,167.7494 Q87.0938,168.7025 87.0938,169.9681 Q87.0938,171.9838 87.8125,172.9525 Q88.5313,173.9056 90.125,173.9056 Q90.7188,173.9056 91.3438,173.7494 Q91.9688,173.5931 92.7969,173.2181 L92.7969,175.4369 Q92.0625,175.7494 91.2656,175.9056 Q90.4844,176.0619 89.7188,176.0619 Z " fill="#000000"/><text fill="#000000" font-family="sans-serif" font-size="14" lengthAdjust="spacing" textLength="77" x="110.75" y="174.572">RecentData</text><line style="stroke:#181818;stroke-width:0.5;" x1="8" x2="258" y1="185.14" y2="185.14"/><ellipse cx="18" cy="200.174" fill="none" rx="3" ry="3" style="stroke:#038048;stroke-width:1.0;"/><text fill="#000000" font-family="sans-serif" font-size="14" lengthAdjust="spacing" textLength="226" x="27" y="204.1059">zadnja_vrijednost : int &#171;get&#187; &#171;set&#187;</text><ellipse cx="18" cy="219.2419" fill="none" rx="3" ry="3" style="stroke:#038048;stroke-width:1.0;"/><text fill="#000000" font-family="sans-serif" font-size="14" lengthAdjust="spacing" textLength="150" x="27" y="223.1739">brojac : int &#171;get&#187; &#171;set&#187;</text><ellipse cx="18" cy="238.3098" fill="none" rx="3" ry="3" style="stroke:#038048;stroke-width:1.0;"/><text fill="#000000" font-family="sans-serif" font-size="14" lengthAdjust="spacing" textLength="186" x="27" y="242.2418">prosjek : double &#171;get&#187; &#171;set&#187;</text><line style="stroke:#181818;stroke-width:0.5;" x1="8" x2="258" y1="250.3438" y2="250.3438"/><ellipse cx="18" cy="265.3777" fill="#84BE84" rx="3" ry="3" style="stroke:#038048;stroke-width:1.0;"/><text fill="#000000" font-family="sans-serif" font-size="14" lengthAdjust="spacing" textLength="220" x="27" y="269.3097">RecentData(a:int, b:int, c:double)</text></g><!--reverse link ControllerBase to SuapApiController--><g id="link_ControllerBase_SuapApiController"><path codeLine="7" d="M544,92.45 C544,112.9 544,125.53 544,152.91 " fill="none" id="ControllerBase-backto-SuapApiController" style="stroke:#181818;stroke-width:1.0;"/><polygon fill="none" points="544,74.45,538,92.45,550,92.45,544,74.45" style="stroke:#181818;stroke-width:1.0;"/></g><!--SRC=[KypCIyufJKbLqDClBaqiY4yio8mlJYqgIotI3oZAJozApDKhACtDuLB4hSuvFw-aA3yd9xMeM3yOAETOa8aG8gZRDpybDQTOtxMeAByeB3Er7CmdLfTBOacYVb1gScfU2OW9rWO0]--></g></svg>